<svg version="1.1" xmlns="http://www.w3.org/2000/svg" xmlns:xlink="http://www.w3.org/1999/xlink" x="0px" y="0px"
	 viewBox="0 0 1152 648" style="enable-background:new 0 0 1152 648;" xml:space="preserve">

<g id="text">
	<text transform="matrix(1 0 0 1 122.998 71.8613)" class="st0 st1">First Floor</text>
</g>
<g id="border">
	<polygon class="st2" points="2,-1 1154,-1 1154,648 -1,648 	"/>
</g>
<g id="living_1_">
	<path id="living" class="st3" d="M920.4,223.9l3.4,252.2c0,0,2.5,30.9-8.3,46.1c-7.9,11.1-26.5,15.3-54.2,15.3c-73.9,0-115,0-115,0
		v-318c0,0-1.1-2.7,12-2.7S920.4,223.9,920.4,223.9z"/>
</g>
<g id="main_1_">
	<polygon id="main" class="st3" points="406.3,274.2 406.3,418 741.1,418 741.1,219.8 573.7,129 415.6,223.1 415.6,262.2 	"/>
</g>
<g id="dining_1_">
	<path id="dining" class="st3" d="M403,273.9v263.6c0,0-170.2,19.2-170.2-35.9V315.3c0,0-3.3-81.2,94.6-71.7
		c41.2,3.9,62.8,9.5,62.8,9.5s2.8,12.2,6.1,12.8S403,273.9,403,273.9z"/>
</g>
<g id="laundry_1_">
	<path id="laundry" class="st3" d="M593.8,422H406.3v115.3c0,0,83.8,5.2,79.3-44.6c0,0,0.9-6.1-14.9-17c-18.7-12.9,6.6-27,14.9-12.9
		c8.3,14.1,68,37.3,108.2,31.5V422z"/>
</g>
<g id="toilet_1_">
	<path id="toilet" class="st3" d="M601.7,484v-62h138.7v115.3c0,0-49.5-1.5-61.5-8.9c0,0,12.9-3.3,21.9-13
		c8.7-9.4,17.2-20.3,15.6-39.1c-0.7-7.8-8-15.6-36.3-1.9s-78.4,19.6-78.4,19.6V484z"/>
</g>
<g id="garden_1_">
	<path class="st3" d="M124,417h21v-95h61l3-4c0,0-5-32-4-43s-1-43,11-50s41-19,49-21s24-9,50-10s53,3,53,3l18,4c0,0-2-19,5-32
		s6-20,18-29s12-9,12-9H126L124,417z"/>
</g>
</svg>
