<?xml version="1.0" encoding="utf-8"?>
<!-- Generator: Adobe Illustrator 21.1.0, SVG Export Plug-In . SVG Version: 6.00 Build 0)  -->
<svg version="1.1" xmlns="http://www.w3.org/2000/svg" xmlns:xlink="http://www.w3.org/1999/xlink" x="0px" y="0px"
	 viewBox="0 0 1152 648" style="enable-background:new 0 0 1152 648;" xml:space="preserve">
<style type="text/css">
	.st0{fill:none;stroke:#FFFFFF;stroke-miterlimit:10;}
	.st1{fill:#FFFFFF;}
</style>
<g id="border">
	<rect x="1" y="1" class="st0" width="1152" height="647"/>
</g>
<g id="toilet">
	<path class="st1" d="M364,378.3v58l2,1.5l57.5-1c0,0-11.3-26.5-21.5-35.3S381.3,385,374,382S364,378.3,364,378.3z"/>
</g>
<g id="bedroom1">
	<path class="st1" d="M314.3,325.8l-0.7,37.6c0,0-48.2,33.9-38.8,86.5s39.7,57.5,61.5,61.1s60.4,7.6,82.1-8.5
		c15.7-11.6,21-30.1,12.8-63.9l-71.2,0.8v-71.6l-1.1-42.3L314.3,325.8z"/>
</g>
<g id="library">
	<polygon class="st1" points="469.3,302.7 613.7,302.7 613.7,459.3 525.9,459.3 525.9,521 469,521 	"/>
</g>
</svg>
