<svg id="Layer_1" data-name="Layer 1" xmlns="http://www.w3.org/2000/svg" viewBox="0 0 1280 902"><defs><style>.cls-1{fill:#1a1a1a;}.cls-2{font-size:48px;font-family:GeosansLight, GeosansLight;}.cls-3{letter-spacing:-0.13em;}.cls-4{letter-spacing:-0.05em;}.cls-5{letter-spacing:-0.06em;}.cls-6{letter-spacing:-0.11em;}.cls-7{letter-spacing:-0.05em;}.cls-8{letter-spacing:-0.05em;}.cls-9{letter-spacing:-0.05em;}.cls-10{letter-spacing:-0.05em;}.cls-11{letter-spacing:-0.06em;}.cls-12{letter-spacing:0em;}</style></defs><title>Artboard 1</title><path class="cls-1" d="M522.39,159.5c15.94,3.56,31.86,6.46,47.88,8.62,8,1.08,16,2.09,24.05,2.92s16.08,1.7,24.16,2.45l24.27,2.41c4.06.39,8.11.85,12.17,1.31s8.15.94,12.27,1.47c8.24,1.07,16.56,2.46,24.93,4.41a142.7,142.7,0,0,1,25,8.11c1,.43,2.06.9,3.08,1.4s2,1,3.06,1.5l3,1.61c1,.53,2,1.16,3.06,1.76a64,64,0,0,1,11.94,9.21,41.89,41.89,0,0,1,9.54,14.41,37.18,37.18,0,0,1,2.22,9.09,38.76,38.76,0,0,1-.05,9.14,50.9,50.9,0,0,1-4.78,15.77,78.5,78.5,0,0,1-7.6,12.51,159.45,159.45,0,0,1-17.8,19.94c-3.1,3-6.21,5.88-9.37,8.64l-4.71,4.11c-1.58,1.36-3.08,2.66-4.73,4C697.59,309.8,691,315,684.35,320c-13.34,10-27,19.24-40.82,28.24-6.93,4.47-13.93,8.8-21,13.08-3.58,2.15-6.82,4.19-11.06,6.54a99.9,99.9,0,0,1-13,6,74.34,74.34,0,0,1-14.62,3.84c-1.28.23-2.6.34-3.89.49s-2.63.22-4,.23a55.24,55.24,0,0,1-8-.29,61,61,0,0,1-15.51-3.73,60.18,60.18,0,0,1-7.25-3.36,57.53,57.53,0,0,1-6.84-4.43,46.76,46.76,0,0,1-6.43-5.86,38.65,38.65,0,0,1-5.54-7.77A33.64,33.64,0,0,1,523,343a32.36,32.36,0,0,1,0-10.62,35.45,35.45,0,0,1,2.92-9.42,37,37,0,0,1,5-8A46.54,46.54,0,0,1,544,304.23c18.15-9.82,37.43-10.8,55-8.79,4.39.52,8.76,1.22,13,2.12s8.34,1.89,12.41,3c8.13,2.17,16,4.57,23.73,7s15.33,4.7,22.91,6.64a157.86,157.86,0,0,0,22.77,4.31c1.91.22,3.81.38,5.72.5s3.89.16,5.84.25l5.89,0,5.9-.14c7.89-.28,15.82-1.1,23.76-2.18,15.87-2.22,31.72-5.82,47.58-9.66a311.47,311.47,0,0,1-45.8,17.87,211.91,211.91,0,0,1-24.3,5.7c-2.06.37-4.14.65-6.22,1l-6.28.73c-2.11.17-4.2.37-6.33.51s-4.31.2-6.46.22a169.39,169.39,0,0,1-25.48-2c-8.35-1.23-16.49-2.94-24.48-4.61s-15.82-3.45-23.53-4.83c-3.85-.7-7.68-1.31-11.47-1.8s-7.47-.86-11.17-1a87.37,87.37,0,0,0-21.31,1.33A62.21,62.21,0,0,0,566,323c-1.55.55-3.05,1.22-4.5,1.88a37.26,37.26,0,0,0-3.94,2.17,19.44,19.44,0,0,0-5.37,4.85,9.83,9.83,0,0,0-1.88,4.6,4.21,4.21,0,0,0,.1,1.5,6.18,6.18,0,0,0,.68,1.45,15.46,15.46,0,0,0,4.32,4.23,33.63,33.63,0,0,0,3.46,2,31.1,31.1,0,0,0,3.84,1.66,32.35,32.35,0,0,0,8.15,1.76,38.66,38.66,0,0,0,17.22-3,71.6,71.6,0,0,0,9.08-4.31c2.85-1.6,6.49-3.89,9.85-5.94,6.82-4.2,13.57-8.51,20.3-12.83,13.48-8.62,26.71-17.56,39.53-26.84,6.41-4.62,12.69-9.35,18.73-14.24,1.49-1.18,3.09-2.51,4.61-3.76l4.56-3.8c3-2.54,5.95-5,8.78-7.6A132,132,0,0,0,718.72,251a60.39,60.39,0,0,0,5.42-8,25.13,25.13,0,0,0,2.77-7.28,11.63,11.63,0,0,0-.25-5.75,17,17,0,0,0-3.52-5.94,39.16,39.16,0,0,0-6.95-6.07c-.71-.48-1.38-1-2.13-1.42l-2.26-1.4c-.75-.47-1.56-.89-2.33-1.33s-1.57-.88-2.38-1.28a133.89,133.89,0,0,0-20.71-8.43c-7.3-2.33-14.9-4.21-22.64-6s-15.73-3.34-23.65-5l-23.88-5c-15.94-3.46-31.94-7.12-47.69-11.75A341.84,341.84,0,0,1,522.39,159.5Z"/><path class="cls-1" d="M607.16,149.83c2,8.07,3.53,16.15,5,24.23s2.78,16.17,4,24.26c2.42,16.19,4.36,32.39,6.07,48.6,3.32,32.43,5.33,64.91,6.32,97.44.48,16.28.7,32.54.53,48.91-.08,4.13-.1,8.21-.27,12.38l-.25,6.25-.35,6.21c-.51,8.25-1.21,16.43-2,24.6-1.72,16.32-3.87,32.54-6.6,48.71-1.39,8.08-2.86,16.15-4.55,24.21s-3.47,16.09-5.68,24.09c-1.14-8.22-2-16.41-2.66-24.59s-1.3-16.33-1.83-24.48c-1-16.3-1.66-32.56-2.29-48.73l-.86-24.15c-.12-4-.32-8-.49-11.93l-.61-12c-.85-16.14-1.58-32.37-2-48.6-.93-32.46-1-65,.14-97.54.63-16.28,1.47-32.57,2.79-48.88.67-8.15,1.41-16.31,2.33-24.47S605.78,158,607.16,149.83Z"/><path class="cls-1" d="M712.77,302.52a.57.57,0,0,1-.11-.62.46.46,0,0,1,.3-.21.66.66,0,0,1,.35,0,1.58,1.58,0,0,1,.41.19,6.35,6.35,0,0,1,1,.79,18.7,18.7,0,0,1,1.47,1.67,33.63,33.63,0,0,1,2.33,3.49A58.38,58.38,0,0,1,722,315a82.65,82.65,0,0,1,4.32,14.43A108.54,108.54,0,0,1,728.21,358a106.75,106.75,0,0,1-5.36,27.91,92.88,92.88,0,0,1-5.78,13.54c-1.17,2.23-2.49,4.44-3.93,6.63a49.73,49.73,0,0,1-5,6.49,55.79,55.79,0,0,1-3.44-7.38c-1-2.44-1.78-4.85-2.48-7.25a103.5,103.5,0,0,1-3.08-14.22,127.12,127.12,0,0,1-.89-27.7A138.78,138.78,0,0,1,703,328.8a133.82,133.82,0,0,1,4.5-13.47c.88-2.25,1.84-4.5,2.83-6.77l1.49-3.43c.26-.58.47-1.15.69-1.72.11-.29.19-.58.27-.8,0-.05,0-.1.11-.12s.28-.07.25-.16S712.85,302.39,712.77,302.52Z"/><text class="cls-2" transform="translate(501.72 623.64)"><tspan class="cls-3">P</tspan><tspan x="17.04" y="0">e</tspan><tspan class="cls-4" x="40.56" y="0">n</tspan><tspan class="cls-5" x="60.05" y="0">n</tspan><tspan x="78.77" y="0">y </tspan><tspan class="cls-6" x="112.37" y="0">T</tspan><tspan x="128.4" y="0">alalak</tspan><tspan x="-249.36" y="115.2">br</tspan><tspan class="cls-7" x="-209.66" y="115.2">i</tspan><tspan x="-203.13" y="115.2">ng</tspan><tspan class="cls-8" x="-157" y="115.2">i</tspan><tspan x="-150.48" y="115.2">ng design </tspan><tspan class="cls-7" x="39.5" y="115.2">t</tspan><tspan x="49.2" y="115.2">o </tspan><tspan class="cls-9" x="85.34" y="115.2">l</tspan><tspan x="92.11" y="115.2">i</tspan><tspan class="cls-10" x="100.94" y="115.2">f</tspan><tspan x="111.5" y="115.2">e one </tspan><tspan class="cls-11" x="228.57" y="115.2">c</tspan><tspan class="cls-12" x="246.62" y="115.2">ode at a t</tspan><tspan class="cls-7" x="428.73" y="115.2">i</tspan><tspan x="435.25" y="115.2">me</tspan></text></svg>