<?xml version="1.0" encoding="utf-8"?>
<!-- Generator: Adobe Illustrator 22.1.0, SVG Export Plug-In . SVG Version: 6.00 Build 0)  -->
<svg version="1.1" xmlns="http://www.w3.org/2000/svg" xmlns:xlink="http://www.w3.org/1999/xlink" x="0px" y="0px"
	 viewBox="0 0 1190.6 841.9" style="enable-background:new 0 0 1190.6 841.9;" xml:space="preserve">
<style type="text/css">
	.st0{fill:#FFFFFF;}
	.st1{fill:#FEBC12;}
	.st2{font-family:'Arial-BoldMT';}
	.st3{font-size:19.1714px;}
	.st4{fill:none;}
</style>
<g id="Layer_3">
	<rect class="st0" width="1190.6" height="841.9"/>
</g>
<g id="Layer_1">
	
		<image style="overflow:visible;" width="2736" height="1598" xlink:href="../../Downloads/search results page(2).PNG"  transform="matrix(0.375 0 0 0.375 90.5108 135.2209)">
	</image>
</g>
<g id="Layer_2">
	<circle class="st1" cx="182.6" cy="265.7" r="14.9"/>
	<text transform="matrix(1.1609 0 0 1 176.6221 272.5073)" class="st2 st3">1</text>
	<circle class="st1" cx="310.6" cy="326.3" r="14.9"/>
	<text transform="matrix(1.1609 0 0 1 304.6221 333.1368)" class="st2 st3">2</text>
	<circle class="st1" cx="328.5" cy="449.7" r="14.9"/>
	<text transform="matrix(1.1609 0 0 1 322.4926 456.5436)" class="st2 st3">4</text>
	<circle class="st1" cx="418.5" cy="370.2" r="14.9"/>
	<text transform="matrix(1.1609 0 0 1 412.4926 377.0073)" class="st2 st3">3</text>
	<circle class="st1" cx="98" cy="380.7" r="14.9"/>
	<text transform="matrix(1.1609 0 0 1 91.9926 387.5436)" class="st2 st3">5</text>
	<circle class="st1" cx="944" cy="167.2" r="14.9"/>
	<text transform="matrix(1.1609 0 0 1 937.9926 174.0073)" class="st2 st3">6</text>
	<circle class="st1" cx="995" cy="167.2" r="14.9"/>
	<text transform="matrix(1.1609 0 0 1 988.9926 174.0073)" class="st2 st3">7</text>
	<circle class="st1" cx="1049" cy="167.2" r="14.9"/>
	<text transform="matrix(1.1609 0 0 1 1042.9926 174.0073)" class="st2 st3">8</text>
	<circle class="st1" cx="1070.5" cy="434.8" r="14.9"/>
	<text transform="matrix(1.1609 0 0 1 1064.4926 441.6731)" class="st2 st3">9</text>
</g>
<g id="circle">
	<rect id="rectangle" class="st4" width="1190.6" height="841.9"/>
	<circle id="_x31_" class="st4" cx="182.6" cy="265.7" r="14.9"/>
	<circle id="_x32_" class="st4" cx="310.6" cy="326.3" r="14.9"/>
	<circle id="_x34__1_" class="st4" cx="328.5" cy="449.7" r="14.9"/>
	<circle id="_x33_" class="st4" cx="418.5" cy="370.2" r="14.9"/>
	<circle id="_x35_" class="st4" cx="98" cy="380.7" r="14.9"/>
	<circle id="_x36_" class="st4" cx="944" cy="167.2" r="14.9"/>
	<circle id="_x37_" class="st4" cx="995" cy="167.2" r="14.9"/>
	<circle id="_x38_" class="st4" cx="1049" cy="167.2" r="14.9"/>
	<circle id="_x39_" class="st4" cx="1070.5" cy="434.8" r="14.9"/>
</g>
</svg>
